<svg xmlns="http://www.w3.org/2000/svg" viewBox="0 0 800 500" width="100%" height="100%">
      <rect width="800" height="500" fill="#0a101c"/>
      <!-- Header -->
      <rect x="30" y="30" width="740" height="50" rx="8" fill="#152033"/>
      <circle cx="60" cy="55" r="8" fill="#ff5f56"/>
      <circle cx="85" cy="55" r="8" fill="#ffbd2e"/>
      <circle cx="110" cy="55" r="8" fill="#27c93f"/>
      <text x="140" y="61" fill="#7d8ca3" font-family="system-ui, sans-serif" font-size="14" font-weight="bold">LearnSphere Education Academy LMS</text>
      
      <!-- LMS grid layout -->
      <rect x="30" y="100" width="500" height="370" rx="8" fill="#152033"/>
      <!-- Course list mock -->
      <text x="55" y="145" fill="#ffffff" font-family="system-ui" font-size="18" font-weight="bold">Featured Courses</text>
      
      <rect x="55" y="180" width="450" height="70" rx="8" fill="#1e2c45"/>
      <text x="80" y="210" fill="#ffffff" font-family="system-ui" font-size="14" font-weight="bold">Advanced React &amp; Cloud Native Architecture</text>
      <rect x="80" y="225" width="250" height="8" rx="4" fill="#152033"/>
      <rect x="80" y="225" width="200" height="8" rx="4" fill="#3b82f6"/>
      <text x="350" y="233" fill="#3b82f6" font-family="system-ui" font-size="12" font-weight="bold">80% COMPLETED</text>
      
      <rect x="55" y="270" width="450" height="70" rx="8" fill="#1e2c45"/>
      <text x="80" y="300" fill="#ffffff" font-family="system-ui" font-size="14" font-weight="bold">Machine Learning Operations &amp; LLMs Pipeline</text>
      <rect x="80" y="315" width="250" height="8" rx="4" fill="#152033"/>
      <rect x="80" y="315" width="112" height="8" rx="4" fill="#10b981"/>
      <text x="350" y="323" fill="#10b981" font-family="system-ui" font-size="12" font-weight="bold">45% COMPLETED</text>
      
      <rect x="55" y="360" width="450" height="70" rx="8" fill="#1e2c45"/>
      <text x="80" y="390" fill="#ffffff" font-family="system-ui" font-size="14" font-weight="bold">Modern UX Design Systems and Glassmorphism</text>
      <rect x="80" y="415" width="250" height="8" rx="4" fill="#152033"/>
      <rect x="80" y="415" width="237" height="8" rx="4" fill="#eab308"/>
      <text x="350" y="423" fill="#eab308" font-family="system-ui" font-size="12" font-weight="bold">95% COMPLETED</text>

      <!-- Right statistics -->
      <rect x="550" y="100" width="220" height="370" rx="8" fill="#152033"/>
      <text x="575" y="145" fill="#7d8ca3" font-family="system-ui" font-size="12" font-weight="bold" letter-spacing="1">ENGAGEMENT STATS</text>
      <text x="575" y="200" fill="#3b82f6" font-family="system-ui" font-size="44" font-weight="bold">89%</text>
      <text x="575" y="225" fill="#7d8ca3" font-family="system-ui" font-size="12">Monthly retention</text>
      <path d="M 575 255 L 745 255" stroke="#1d3d31" stroke-width="1"/>
      <text x="575" y="300" fill="#10b981" font-family="system-ui" font-size="44" font-weight="bold">4.8★</text>
      <text x="575" y="325" fill="#7d8ca3" font-family="system-ui" font-size="12">Average course rating</text>
    </svg>