<svg xmlns="http://www.w3.org/2000/svg" viewBox="0 0 800 500" width="100%" height="100%">
      <rect width="800" height="500" fill="#180b0b"/>
      <!-- Header -->
      <rect x="30" y="30" width="740" height="50" rx="8" fill="#2c1313"/>
      <circle cx="60" cy="55" r="8" fill="#ff5f56"/>
      <circle cx="85" cy="55" r="8" fill="#ffbd2e"/>
      <circle cx="110" cy="55" r="8" fill="#27c93f"/>
      <text x="140" y="61" fill="#aa7c7c" font-family="system-ui, sans-serif" font-size="14" font-weight="bold">QuickBite Delivery Fleet &amp; Merchant Hub</text>
      
      <!-- Operations Dashboard layout -->
      <rect x="30" y="100" width="500" height="370" rx="8" fill="#2c1313"/>
      <text x="55" y="145" fill="#ffffff" font-family="system-ui" font-size="18" font-weight="bold">Order Dispatching Center</text>
      
      <!-- Order cards mock -->
      <rect x="55" y="180" width="400" height="70" rx="8" fill="#3d1d1d"/>
      <text x="80" y="210" fill="#ffffff" font-family="system-ui" font-size="14" font-weight="bold">Order #2984 - Riyadh Branch</text>
      <text x="80" y="230" fill="#aa7c7c" font-family="system-ui" font-size="12">2 Items • Delivery: 14 mins</text>
      <rect x="350" y="198" width="80" height="24" rx="12" fill="#ef4444" opacity="0.3"/>
      <text x="390" y="214" fill="#ef4444" font-family="system-ui" font-size="11" font-weight="bold" text-anchor="middle">DISPATCHED</text>

      <rect x="55" y="270" width="400" height="70" rx="8" fill="#3d1d1d"/>
      <text x="80" y="300" fill="#ffffff" font-family="system-ui" font-size="14" font-weight="bold">Order #2983 - Mansoura Branch</text>
      <text x="80" y="320" fill="#aa7c7c" font-family="system-ui" font-size="12">1 Item • Delivery: 9 mins</text>
      <rect x="350" y="288" width="80" height="24" rx="12" fill="#10b981" opacity="0.3"/>
      <text x="390" y="304" fill="#10b981" font-family="system-ui" font-size="11" font-weight="bold" text-anchor="middle">DELIVERED</text>

      <rect x="55" y="360" width="400" height="70" rx="8" fill="#3d1d1d"/>
      <text x="80" y="390" fill="#ffffff" font-family="system-ui" font-size="14" font-weight="bold">Order #2982 - Mansoura Branch</text>
      <text x="80" y="410" fill="#aa7c7c" font-family="system-ui" font-size="12">4 Items • Delivery: 22 mins</text>
      <rect x="350" y="378" width="80" height="24" rx="12" fill="#ef4444" opacity="0.3"/>
      <text x="390" y="394" fill="#ef4444" font-family="system-ui" font-size="11" font-weight="bold" text-anchor="middle">DISPATCHED</text>

      <!-- Right statistics -->
      <rect x="550" y="100" width="220" height="370" rx="8" fill="#2c1313"/>
      <text x="575" y="145" fill="#aa7c7c" font-family="system-ui" font-size="12" font-weight="bold" letter-spacing="1">SPEED DELIVERY</text>
      <text x="575" y="200" fill="#f43f5e" font-family="system-ui" font-size="48" font-weight="bold">19%</text>
      <text x="575" y="225" fill="#aa7c7c" font-family="system-ui" font-size="12">Avg Delivery speed optimization</text>
      <path d="M 575 255 L 745 255" stroke="#3d1d1d" stroke-width="1"/>
      <text x="575" y="300" fill="#f43f5e" font-family="system-ui" font-size="44" font-weight="bold">+34%</text>
      <text x="575" y="325" fill="#aa7c7c" font-family="system-ui" font-size="12">Total orders growth</text>
    </svg>