<svg width="512" height="512" viewBox="0 0 512 512" fill="none" xmlns="http://www.w3.org/2000/svg" role="img" aria-label="HDS logo">
  <rect width="512" height="512" rx="112" fill="#082F3A"/>
  <path d="M130 180H174V232H258V180H302V332H258V266H174V332H130V180Z" fill="#5FE0C6"/>
  <path d="M320 198C320 184.745 330.745 174 344 174H380C393.255 174 404 184.745 404 198V210H362V202H362C362 199.791 360.209 198 358 198H346C343.791 198 342 199.791 342 202V222C342 224.209 343.791 226 346 226H374C391.673 226 406 240.327 406 258V290C406 307.673 391.673 322 374 322H332C318.745 322 308 311.255 308 298V286H350V296H350C350 298.209 351.791 300 354 300H372C374.209 300 376 298.209 376 296V278C376 275.791 374.209 274 372 274H344C326.327 274 312 259.673 312 242V198H320Z" fill="#FFFFFF"/>
  <circle cx="430" cy="214" r="14" fill="#5FE0C6"/>
</svg>